<?xml version="1.0" standalone="no"?>
<!DOCTYPE svg PUBLIC "-//W3C//DTD SVG 20010904//EN"
 "http://www.w3.org/TR/2001/REC-SVG-20010904/DTD/svg10.dtd">
<svg version="1.0" xmlns="http://www.w3.org/2000/svg"
 width="1280.000000pt" height="1066.000000pt" viewBox="0 0 1280.000000 1066.000000"
 preserveAspectRatio="xMidYMid meet">
<metadata>
Created by potrace 1.15, written by Peter Selinger 2001-2017
</metadata>
<g transform="translate(0.000000,1066.000000) scale(0.100000,-0.100000)"
fill="#2196f3" stroke="none">
<path d="M5060 10649 c-574 -63 -1125 -337 -1584 -787 -313 -308 -429 -505
-686 -1168 -164 -421 -201 -489 -409 -733 -380 -448 -771 -770 -1221 -1007
-479 -251 -842 -479 -1018 -639 -153 -141 -189 -335 -72 -397 63 -33 196 -21
539 47 520 105 1012 266 1336 437 469 249 821 390 1315 527 80 23 152 41 160
41 8 -1 27 -18 41 -39 16 -23 47 -48 80 -65 46 -22 65 -26 143 -26 50 0 168
11 261 25 439 64 691 1 983 -247 145 -124 338 -342 445 -503 153 -232 221
-436 221 -660 0 -127 -15 -215 -57 -335 -66 -191 -128 -289 -446 -710 -557
-739 -644 -856 -743 -1005 -269 -406 -424 -737 -517 -1100 -95 -374 -106 -831
-30 -1310 23 -150 14 -136 176 -245 619 -414 1761 -675 3259 -745 l141 -7 35
31 c72 63 132 207 335 801 295 862 468 1289 742 1825 260 509 540 940 862
1325 126 152 404 437 554 569 310 274 648 505 1002 684 312 158 512 232 1078
398 527 155 805 243 784 247 -60 11 -1698 -436 -2724 -744 -553 -166 -1053
-329 -1269 -414 -211 -83 -700 -340 -938 -493 -46 -29 -90 -56 -98 -61 -31
-16 114 112 367 322 155 129 260 222 257 230 -13 40 -44 221 -54 312 -13 121
-6 896 11 1100 5 69 28 242 49 385 49 328 60 435 60 596 0 225 -47 588 -111
859 -209 886 -743 1642 -1531 2168 -532 354 -961 507 -1458 517 -102 2 -223 0
-270 -6z m-645 -1199 c96 -14 207 -44 328 -88 108 -39 755 -356 797 -390 50
-40 10 -32 -131 29 -201 86 -316 130 -449 174 -114 38 -322 95 -328 90 -2 -2
1 -28 7 -60 50 -271 -276 -456 -484 -273 -98 87 -128 215 -78 344 8 21 -22 18
-106 -11 -80 -27 -124 -51 -189 -103 -29 -24 -46 -32 -53 -25 -13 13 125 143
225 214 133 94 276 125 461 99z"/>
</g>
</svg>
